<svg width="20" height="14" viewBox="0 0 20 14" fill="none" xmlns="http://www.w3.org/2000/svg">
<rect width="20" height="14" rx="2" fill="white"/>
<mask id="mask0_2135_1862" style="mask-type:luminance" maskUnits="userSpaceOnUse" x="0" y="0" width="20" height="14">
<rect width="20" height="14" rx="2" fill="white"/>
</mask>
<g mask="url(#mask0_2135_1862)">
<path d="M0 12H20V13C20 13.5523 19.5523 14 19 14H1C0.447715 14 0 13.5523 0 13V12Z" fill="#FFCC66"/>
<path d="M0 1C0 0.447715 0.447715 0 1 0H19C19.5523 0 20 0.447715 20 1V2H0V1Z" fill="#3C72FF"/>
</g>
<path fill-rule="evenodd" clip-rule="evenodd" d="M8.905 5.00025H9.86775L9.26575 8.99226H8.303L8.905 5.00025ZM11.8088 6.62626C12.3635 6.90164 12.621 7.23892 12.6173 7.67957C12.6093 8.48171 11.9518 9 10.9415 9C10.5095 8.99601 10.0935 8.90164 9.86775 8.79453L10.0025 7.92623L10.1293 7.98814C10.4423 8.13194 10.6483 8.19386 11.0325 8.19386C11.3098 8.19386 11.6068 8.07427 11.6108 7.81488C11.6108 7.64636 11.484 7.52278 11.1115 7.33354C10.7473 7.14855 10.26 6.84022 10.2678 6.28473C10.272 5.53177 10.9413 5.00524 11.892 5.00524C12.2648 5.00524 12.5658 5.09162 12.7558 5.16977L12.6252 6.00487L12.5378 5.96367C12.3635 5.88553 12.1337 5.80764 11.8208 5.81563C11.4405 5.81563 11.2703 5.9844 11.266 6.14892C11.266 6.32967 11.4722 6.44901 11.8088 6.62626ZM15.224 5.01273L16 8.99526H15.1087L14.9645 8.1996H13.834L13.5557 8.99201H12.5457L13.9757 5.33354C14.075 5.08239 14.2492 5.01273 14.4792 5.01273H15.224ZM14.1145 7.4007H14.7957L14.5025 6.10773C14.5025 6.10773 14.134 7.40295 14.1145 7.4007ZM5.12665 5.57545C4.80676 5.35943 4.43018 5.18794 4 5.07515L4.0155 5.0005H5.50925C5.712 5.00849 5.87625 5.07515 5.92975 5.31007L6.17044 6.56362C6.2977 6.76463 6.39559 6.97383 6.453 7.17726L6.55575 7.71227L7.49875 5.00025V5H8.517L7.0035 8.98777H5.9855L5.12665 5.57545Z" fill="#3C72FF"/>
</svg>
